# xmcd CD database file
#
# Track frame offsets:
#	150
#	12760
#	25760
#	41634
#	61445
#	77019
#	87622
#	100465
#	114894
#	130061
#	141157
#	150963
#	165648
#	179349
#	191166
#	204982
#	220520
#
# Disc length: 3187 seconds
#
# Revision: 0
# Processed by: cddbd v1.5.2PL0 Copyright (c) Steve Scherf et al.
# Submitted via: CDex 1.70
#
DISCID=db0c7111
DTITLE=Held Oncale - Country Music
DYEAR=2015
DGENRE=Country
TTITLE0=Jambalaya
TTITLE1=Folsom Prison Blues
TTITLE2=Texas Honky Tonk
TTITLE3=City Of New Orleans
TTITLE4=San Antonio Rose
TTITLE5=Walking The Floor Over You
TTITLE6=Orange Blossom Special
TTITLE7=How Long
TTITLE8=Straight Down
TTITLE9=Jole Blon
TTITLE10=Dance With Me Tonight
TTITLE11=Six Days On The Road
TTITLE12=Tennessee Waltz
TTITLE13=Pecan Pickin'
TTITLE14=Your Cheatin' Heart
TTITLE15=Mexico
TTITLE16=Long Road Winding
EXTD=YEAR: 2015
EXTT0=
EXTT1=
EXTT2=
EXTT3=
EXTT4=
EXTT5=
EXTT6=
EXTT7=
EXTT8=
EXTT9=
EXTT10=
EXTT11=
EXTT12=
EXTT13=
EXTT14=
EXTT15=
EXTT16=
PLAYORDER=
